<?xml version="1.0" encoding="utf-8"?>
<!-- Generator: Adobe Illustrator 21.0.0, SVG Export Plug-In . SVG Version: 6.00 Build 0)  -->
<svg version="1.1" id="Layer_1" xmlns="http://www.w3.org/2000/svg" xmlns:xlink="http://www.w3.org/1999/xlink" x="0px" y="0px"
	 viewBox="0 0 42 42" style="enable-background:new 0 0 42 42;" xml:space="preserve">
<style type="text/css">
	.st0{opacity:0.45;fill:#FFBB4C;enable-background:new    ;}
	.st1{fill:none;}
	.st2{fill:#FFFFFF;}
</style>
<g id="Group_26" transform="translate(323 -3238)">
	<circle id="Ellipse_8" class="st0" cx="-302" cy="3259" r="21"/>
	<g id="Layer_2" transform="translate(-314 3248)">
		<g id="invisible_box">
			<rect id="Rectangle_6" y="0" class="st1" width="24" height="24"/>
			<rect id="Rectangle_7" y="0" class="st1" width="24" height="24"/>
		</g>
		<g id="icons_Q2" transform="translate(3.007 3.082)">
			<path id="Path_5" class="st2" d="M17.2,18h-4.7V11h2.2c0.1,0,0.1,0,0.2-0.1L15,9.7c0-0.5,0.1-0.9,0.2-1.4s0-0.1-0.1-0.1h-2.6V6.5
				c0-0.1,0-0.3,0-0.5c0-0.4,0.3-0.7,0.7-0.7l0.6-0.1h1.4c0.1,0,0.1,0,0.1-0.1V2.8c0,0,0-0.1-0.1-0.1h-2.1c-0.5,0-1,0.1-1.5,0.3
				c-0.7,0.2-1.3,0.7-1.6,1.4C9.8,5,9.6,5.5,9.7,6.1c0,0.7,0,1.4,0,2.1H7.4c-0.1,0-0.1,0-0.1,0.1v2.6c0,0.1,0,0.1,0.1,0.1h2.3v6.9
				c0,0,0,0.1,0,0.1H0.9c-0.4,0-0.8-0.4-0.8-0.8c0,0,0,0,0-0.1V0.9c0,0,0-0.1,0-0.1C0.1,0.4,0.4,0,0.9,0h16.4C17.7,0,18,0.4,18,0.8
				C18,0.8,17.7,17.9,17.2,18z"/>
		</g>
	</g>
</g>
</svg>
