<svg xmlns="http://www.w3.org/2000/svg" width="42" height="42" viewBox="0 0 42 42">
  <g id="Group_26" data-name="Group 26" transform="translate(323 -3238)">
    <circle id="Ellipse_8" data-name="Ellipse 8" cx="21" cy="21" r="21" transform="translate(-281 3238) rotate(90)" fill="#fff" opacity="0.158"/>
    <g id="Layer_2" data-name="Layer 2" transform="translate(-314 3248)">
      <g id="invisible_box" data-name="invisible box">
        <rect id="Rectangle_6" data-name="Rectangle 6" width="24" height="24" fill="none"/>
        <rect id="Rectangle_7" data-name="Rectangle 7" width="24" height="24" fill="none"/>
      </g>
      <g id="icons_Q2" data-name="icons Q2" transform="translate(3.007 3.082)">
        <path id="Path_5" data-name="Path 5" d="M21.213,22.051H16.469V15.105h2.214c.136,0,.136,0,.181-.135L19,13.842c.045-.451.09-.9.181-1.353s0-.135-.09-.135h-2.62V10.595c0-.135.045-.316.045-.451a.813.813,0,0,1,.723-.722l.587-.09H19.18c.09,0,.09,0,.09-.09v-2.3c0-.045,0-.09-.09-.09H17.1a3.257,3.257,0,0,0-1.491.316,2.709,2.709,0,0,0-1.581,1.4,3.288,3.288,0,0,0-.361,1.624c-.045.677,0,1.4,0,2.12h-2.3c-.09,0-.09.045-.09.09V14.97c0,.09,0,.09.09.09h2.3v6.946a.135.135,0,0,0-.045.09H4.858a.858.858,0,0,1-.813-.812C4,21.285,4,21.239,4,21.194V5c0-.045,0-.09.045-.09A.858.858,0,0,1,4.858,4.1H21.213a.858.858,0,0,1,.813.812S21.653,22.029,21.213,22.051Z" transform="translate(-4 -4.1)" fill="#fff"/>
      </g>
    </g>
  </g>
</svg>
