<svg xmlns="http://www.w3.org/2000/svg" width="42" height="42" viewBox="0 0 42 42">
  <g id="Group_27" data-name="Group 27" transform="translate(323 -3304)">
    <circle id="Ellipse_7" data-name="Ellipse 7" cx="21" cy="21" r="21" transform="translate(-281 3304) rotate(90)" fill="#fff" opacity="0.158"/>
    <g id="Layer_2" data-name="Layer 2" transform="translate(-314 3314)">
      <g id="invisible_box" data-name="invisible box">
        <rect id="Rectangle_2" data-name="Rectangle 2" width="24" height="24" fill="none"/>
        <rect id="Rectangle_3" data-name="Rectangle 3" width="24" height="24" fill="none"/>
      </g>
      <g id="icons_Q2" data-name="icons Q2" transform="translate(1.997 1.997)">
        <path id="Path_1" data-name="Path 1" d="M13.987,5.8h4.045a5.393,5.393,0,0,1,1.848.35,3.346,3.346,0,0,1,1.9,1.9,5.393,5.393,0,0,1,.35,1.848c.05,1.049.05,1.4.05,4.045s0,3-.05,4.045a5.393,5.393,0,0,1-.35,1.848,3.346,3.346,0,0,1-1.9,1.9,5.393,5.393,0,0,1-1.848.35H9.942a5.393,5.393,0,0,1-1.848-.35,3.346,3.346,0,0,1-1.9-1.9,5.393,5.393,0,0,1-.35-1.848c-.05-1.049-.05-1.4-.05-4.045s0-3,.05-4.045A5.393,5.393,0,0,1,6.2,8.045a3.346,3.346,0,0,1,1.9-1.9A5.393,5.393,0,0,1,9.942,5.8h4.045m0-1.8H9.892a8.938,8.938,0,0,0-2.447.449A4.994,4.994,0,0,0,5.7,5.7,4.245,4.245,0,0,0,4.549,7.446a7.241,7.241,0,0,0-.5,2.447C4,10.941,4,11.291,4,13.987s0,3.046.05,4.095a7.241,7.241,0,0,0,.5,2.447A4.245,4.245,0,0,0,5.7,22.276a4.245,4.245,0,0,0,1.748,1.149,7.241,7.241,0,0,0,2.447.5h8.189a7.241,7.241,0,0,0,2.447-.5,4.245,4.245,0,0,0,1.748-1.149,4.993,4.993,0,0,0,1.2-1.748,8.938,8.938,0,0,0,.449-2.447c.05-1.049.05-1.4.05-4.095s0-3.046-.05-4.095a8.939,8.939,0,0,0-.449-2.447,4.994,4.994,0,0,0-1.2-1.748,4.994,4.994,0,0,0-1.748-1.2,8.939,8.939,0,0,0-2.447-.449H13.987" transform="translate(-4 -4)" fill="#fff"/>
        <path id="Path_2" data-name="Path 2" d="M18.843,13.7a5.143,5.143,0,1,0,5.143,5.143A5.143,5.143,0,0,0,18.843,13.7m0,8.489a3.346,3.346,0,1,1,3.346-3.346,3.346,3.346,0,0,1-3.346,3.346" transform="translate(-8.856 -8.856)" fill="#fff"/>
        <path id="Path_3" data-name="Path 3" d="M34.7,12.1a1.2,1.2,0,1,1-1.2-1.2,1.2,1.2,0,0,1,1.2,1.2" transform="translate(-18.168 -7.454)" fill="#fff"/>
      </g>
    </g>
  </g>
</svg>
