<?xml version="1.0" encoding="utf-8"?>
<!-- Generator: Adobe Illustrator 21.0.0, SVG Export Plug-In . SVG Version: 6.00 Build 0)  -->
<svg version="1.1" id="Layer_1" xmlns="http://www.w3.org/2000/svg" xmlns:xlink="http://www.w3.org/1999/xlink" x="0px" y="0px"
	 viewBox="0 0 42 42" style="enable-background:new 0 0 42 42;" xml:space="preserve">
<style type="text/css">
	.st0{opacity:0.45;fill:#FFBB4C;enable-background:new    ;}
	.st1{fill:none;}
	.st2{fill:#FFFFFF;}
</style>
<g id="Group_27" transform="translate(323 -3304)">
	<circle id="Ellipse_7" class="st0" cx="-302" cy="3325" r="21"/>
	<g id="Layer_2" transform="translate(-314 3314)">
		<g id="invisible_box">
			<rect id="Rectangle_2" y="0" class="st1" width="24" height="24"/>
			<rect id="Rectangle_3" y="0" class="st1" width="24" height="24"/>
		</g>
		<g id="icons_Q2" transform="translate(1.997 1.997)">
			<path id="Path_1" class="st2" d="M10,1.8h4c0.6,0,1.3,0.1,1.8,0.3c0.9,0.3,1.6,1,1.9,1.9c0.2,0.6,0.3,1.2,0.4,1.8c0,1,0,1.4,0,4
				s0,3,0,4c0,0.6-0.1,1.3-0.4,1.8c-0.3,0.9-1,1.6-1.9,1.9c-0.6,0.2-1.2,0.3-1.8,0.4H5.9c-0.6,0-1.3-0.1-1.8-0.4
				c-0.9-0.3-1.6-1-1.9-1.9C2,15.2,1.9,14.6,1.8,14c-0.1-1-0.1-1.4-0.1-4s0-3,0.1-4C1.9,5.3,2,4.6,2.2,4c0.3-0.9,1-1.6,1.9-1.9
				c0.6-0.2,1.2-0.3,1.8-0.3H10 M10,0H5.9C5.1,0,4.2,0.2,3.4,0.4C2.8,0.7,2.2,1.2,1.7,1.7C1.2,2.2,0.8,2.8,0.5,3.4
				C0.2,4.2,0.1,5.1,0,5.9c0,1,0,1.4,0,4.1s0,3,0.1,4.1c0,0.8,0.2,1.7,0.5,2.4c0.2,0.7,0.6,1.3,1.1,1.7c0.5,0.5,1.1,0.9,1.7,1.1
				c0.8,0.3,1.6,0.5,2.4,0.5h8.2c0.8,0,1.7-0.2,2.4-0.5c0.7-0.2,1.3-0.6,1.7-1.1c0.5-0.5,0.9-1.1,1.2-1.7c0.3-0.8,0.4-1.6,0.4-2.4
				c0-1,0-1.4,0-4.1s0-3,0-4.1c0-0.8-0.2-1.7-0.4-2.4c-0.3-0.7-0.7-1.3-1.2-1.7c-0.5-0.5-1.1-0.9-1.7-1.2c-0.8-0.3-1.6-0.4-2.4-0.4
				L10,0"/>
			<path id="Path_2" class="st2" d="M10,4.8c-2.8,0-5.1,2.3-5.1,5.1s2.3,5.1,5.1,5.1s5.1-2.3,5.1-5.1l0,0C15.1,7.1,12.8,4.8,10,4.8
				 M10,13.3c-1.8,0-3.3-1.5-3.3-3.3c0-1.8,1.5-3.3,3.3-3.3c1.8,0,3.3,1.5,3.3,3.3S11.8,13.3,10,13.3C10,13.3,10,13.3,10,13.3"/>
			<path id="Path_3" class="st2" d="M16.5,4.6c0,0.7-0.5,1.2-1.2,1.2c-0.7,0-1.2-0.5-1.2-1.2c0-0.7,0.5-1.2,1.2-1.2S16.5,4,16.5,4.6
				C16.5,4.6,16.5,4.6,16.5,4.6"/>
		</g>
	</g>
</g>
</svg>
