<?xml version="1.0" encoding="utf-8"?>
<!-- Generator: Adobe Illustrator 21.0.0, SVG Export Plug-In . SVG Version: 6.00 Build 0)  -->
<svg version="1.1" id="Layer_1" xmlns="http://www.w3.org/2000/svg" xmlns:xlink="http://www.w3.org/1999/xlink" x="0px" y="0px"
	 viewBox="0 0 42 42" style="enable-background:new 0 0 42 42;" xml:space="preserve">
<style type="text/css">
	.st0{opacity:0.45;fill:#FFBB4C;enable-background:new    ;}
	.st1{fill:none;}
	.st2{fill:#FFFFFF;}
</style>
<g id="Group_28" transform="translate(323 -3370)">
	<circle id="Ellipse_6" class="st0" cx="-302" cy="3391" r="21"/>
	<g id="Layer_2" transform="translate(-314 3380)">
		<g id="invisible_box">
			<rect id="Rectangle_4" y="0" class="st1" width="24" height="24"/>
			<rect id="Rectangle_5" y="0" class="st1" width="24" height="24"/>
		</g>
		<g id="icons_Q2" transform="translate(1 3.032)">
			<path id="Path_4" class="st2" d="M22,2.1c-0.8,0.4-1.7,0.6-2.6,0.8c0.9-0.6,1.6-1.5,2-2.5c-0.9,0.5-1.9,0.9-2.9,1.1
				c-1.7-1.8-4.6-1.9-6.4-0.2c-0.9,0.8-1.4,2-1.4,3.2c0,0.4,0.1,0.7,0.1,1.1c-3.6-0.2-7-1.9-9.3-4.7C1.1,1.5,0.9,2.3,0.9,3.1
				c0,1.5,0.8,2.9,2,3.7c-0.7,0-1.4-0.2-2-0.6l0,0c0,2.2,1.5,4,3.6,4.4c-0.4,0.1-0.8,0.2-1.2,0.2l-0.8-0.1c0.6,1.8,2.3,3.1,4.3,3.1
				c-1.6,1.2-3.6,1.9-5.6,1.9H0c2.1,1.3,4.4,2.1,6.9,2c7.1,0,12.8-5.6,12.9-12.7c0,0,0-0.1,0-0.1V4.4C20.6,3.8,21.4,3,22,2.1z"/>
		</g>
	</g>
</g>
</svg>
