<svg xmlns="http://www.w3.org/2000/svg" width="42" height="42" viewBox="0 0 42 42">
  <g id="Group_28" data-name="Group 28" transform="translate(323 -3370)">
    <circle id="Ellipse_6" data-name="Ellipse 6" cx="21" cy="21" r="21" transform="translate(-281 3370) rotate(90)" fill="#fff" opacity="0.158"/>
    <g id="Layer_2" data-name="Layer 2" transform="translate(-314 3380)">
      <g id="invisible_box" data-name="invisible box">
        <rect id="Rectangle_4" data-name="Rectangle 4" width="24" height="24" fill="none"/>
        <rect id="Rectangle_5" data-name="Rectangle 5" width="24" height="24" fill="none"/>
      </g>
      <g id="icons_Q2" data-name="icons Q2" transform="translate(1 3.032)">
        <path id="Path_4" data-name="Path 4" d="M24,8.132a9.15,9.15,0,0,1-2.6.75,4.7,4.7,0,0,0,2-2.5,11.6,11.6,0,0,1-2.85,1.1,4.55,4.55,0,0,0-7.85,3.05,3.8,3.8,0,0,0,.15,1.05,12.9,12.9,0,0,1-9.3-4.7,4.25,4.25,0,0,0-.65,2.25,4.45,4.45,0,0,0,2.05,3.75,4.05,4.05,0,0,1-2.05-.55h0a4.45,4.45,0,0,0,3.6,4.45,4.3,4.3,0,0,1-1.2.2l-.85-.1a4.6,4.6,0,0,0,4.25,3.15,9.1,9.1,0,0,1-5.6,1.9H2a12.55,12.55,0,0,0,6.9,2.05,12.778,12.778,0,0,0,12.85-12.85v-.65A9.15,9.15,0,0,0,24,8.132Z" transform="translate(-2 -6.063)" fill="#fff"/>
      </g>
    </g>
  </g>
</svg>
