<?xml version="1.0" encoding="utf-8"?>
<!-- Generator: Adobe Illustrator 21.0.0, SVG Export Plug-In . SVG Version: 6.00 Build 0)  -->
<svg version="1.1" id="Layer_1" xmlns="http://www.w3.org/2000/svg" xmlns:xlink="http://www.w3.org/1999/xlink" x="0px" y="0px"
	 viewBox="0 0 42 42" style="enable-background:new 0 0 42 42;" xml:space="preserve">
<style type="text/css">
	.st0{opacity:0.158;fill:#FFFFFF;enable-background:new    ;}
	.st1{fill:none;}
	.st2{fill:#FFFFFF;}
</style>
<g id="Group_29" transform="translate(323 -3436)">
	<circle id="Ellipse_5" class="st0" cx="-302" cy="3457" r="21"/>
	<g id="Layer_2" transform="translate(-314 3446)">
		<g id="invisible_box">
			<rect id="Rectangle_8" y="0" class="st1" width="24" height="24"/>
			<rect id="Rectangle_9" y="0" class="st1" width="24" height="24"/>
		</g>
		<g id="icons_Q2" transform="translate(1 4)">
			<path id="Path_6" class="st2" d="M21.5,2.4c-0.3-1-1-1.7-1.9-1.9C17.9,0,11,0,11,0S4.1,0,2.4,0.4c-1,0.3-1.7,1-1.9,1.9
				C0.1,4.1,0,5.9,0,7.7c0,1.8,0.1,3.6,0.5,5.3c0.3,1,1,1.7,2,2c1.7,0.5,8.6,0.5,8.6,0.5s6.9,0,8.6-0.5c1-0.3,1.7-1,1.9-2
				c0.3-1.7,0.5-3.5,0.5-5.3C22,5.9,21.9,4.1,21.5,2.4z M8.8,11V4.4l5.7,3.3L8.8,11z"/>
		</g>
	</g>
</g>
</svg>
